<svg xmlns="http://www.w3.org/2000/svg" width="1280" height="760" viewBox="0 0 1280 760">
<rect width="1280" height="760" fill="#f8fafc"/>
<rect x="20" y="20" width="1240" height="720" rx="24" fill="#e2e8f0"/>
<rect x="40" y="40" width="1200" height="96" rx="16" fill="#0f172a"/>
<text x="70" y="82" font-size="30" font-family="Arial" fill="#ffffff" font-weight="700">SOC Alert Summary</text>
<text x="70" y="114" font-size="18" font-family="Arial" fill="#cbd5e1">Multiple failed logins followed by successful authentication</text>
<rect x="40" y="170" width="420" height="54" fill="#1e293b" stroke="#334155"/>
<text x="52" y="203" font-size="16" font-family="Arial" fill="#ffffff" font-weight="700">Field</text>
<rect x="460" y="170" width="760" height="54" fill="#1e293b" stroke="#334155"/>
<text x="472" y="203" font-size="16" font-family="Arial" fill="#ffffff" font-weight="700">Value</text>
<rect x="40" y="224" width="420" height="54" fill="#ffffff" stroke="#cbd5e1"/>
<text x="50" y="256" font-size="14" font-family="Arial" fill="#0f172a">Alert ID</text>
<rect x="460" y="224" width="760" height="54" fill="#ffffff" stroke="#cbd5e1"/>
<text x="470" y="256" font-size="14" font-family="Arial" fill="#0f172a">SOC-2026-0142</text>
<rect x="40" y="278" width="420" height="54" fill="#f1f5f9" stroke="#cbd5e1"/>
<text x="50" y="310" font-size="14" font-family="Arial" fill="#0f172a">Alert Type</text>
<rect x="460" y="278" width="760" height="54" fill="#f1f5f9" stroke="#cbd5e1"/>
<text x="470" y="310" font-size="14" font-family="Arial" fill="#0f172a">Multiple failed logins followed by success</text>
<rect x="40" y="332" width="420" height="54" fill="#ffffff" stroke="#cbd5e1"/>
<text x="50" y="364" font-size="14" font-family="Arial" fill="#0f172a">Primary User</text>
<rect x="460" y="332" width="760" height="54" fill="#ffffff" stroke="#cbd5e1"/>
<text x="470" y="364" font-size="14" font-family="Arial" fill="#0f172a">j.smith</text>
<rect x="40" y="386" width="420" height="54" fill="#f1f5f9" stroke="#cbd5e1"/>
<text x="50" y="418" font-size="14" font-family="Arial" fill="#0f172a">Source IP</text>
<rect x="460" y="386" width="760" height="54" fill="#f1f5f9" stroke="#cbd5e1"/>
<text x="470" y="418" font-size="14" font-family="Arial" fill="#0f172a">203.0.113.44</text>
<rect x="40" y="440" width="420" height="54" fill="#ffffff" stroke="#cbd5e1"/>
<text x="50" y="472" font-size="14" font-family="Arial" fill="#0f172a">Initial Severity</text>
<rect x="460" y="440" width="760" height="54" fill="#ffffff" stroke="#cbd5e1"/>
<text x="470" y="472" font-size="14" font-family="Arial" fill="#991b1b">High</text>
<rect x="40" y="494" width="420" height="54" fill="#f1f5f9" stroke="#cbd5e1"/>
<text x="50" y="526" font-size="14" font-family="Arial" fill="#0f172a">Final Disposition</text>
<rect x="460" y="494" width="760" height="54" fill="#f1f5f9" stroke="#cbd5e1"/>
<text x="470" y="526" font-size="14" font-family="Arial" fill="#991b1b">Confirmed suspicious</text>
<text x="40" y="720" font-size="17" font-family="Arial" fill="#475569">Synthetic screenshot for GitHub README and public security portfolio documentation</text>
</svg>