<svg xmlns="http://www.w3.org/2000/svg" width="1280" height="760" viewBox="0 0 1280 760">
<rect width="1280" height="760" fill="#f8fafc"/>
<rect x="20" y="20" width="1240" height="720" rx="24" fill="#e2e8f0"/>
<rect x="40" y="40" width="1200" height="96" rx="16" fill="#0f172a"/>
<text x="70" y="82" font-size="30" font-family="Arial" fill="#ffffff" font-weight="700">Source IP Analysis</text>
<text x="70" y="114" font-size="18" font-family="Arial" fill="#cbd5e1">Repeated attempts from same external test address against one account</text>
<rect x="40" y="170" width="220" height="54" fill="#1e293b" stroke="#334155"/>
<text x="52" y="203" font-size="16" font-family="Arial" fill="#ffffff" font-weight="700">Timestamp</text>
<rect x="260" y="170" width="180" height="54" fill="#1e293b" stroke="#334155"/>
<text x="272" y="203" font-size="16" font-family="Arial" fill="#ffffff" font-weight="700">Source IP</text>
<rect x="440" y="170" width="150" height="54" fill="#1e293b" stroke="#334155"/>
<text x="452" y="203" font-size="16" font-family="Arial" fill="#ffffff" font-weight="700">User</text>
<rect x="590" y="170" width="190" height="54" fill="#1e293b" stroke="#334155"/>
<text x="602" y="203" font-size="16" font-family="Arial" fill="#ffffff" font-weight="700">Event</text>
<rect x="780" y="170" width="460" height="54" fill="#1e293b" stroke="#334155"/>
<text x="792" y="203" font-size="16" font-family="Arial" fill="#ffffff" font-weight="700">Notes</text>
<rect x="40" y="224" width="220" height="54" fill="#ffffff" stroke="#cbd5e1"/>
<text x="50" y="256" font-size="14" font-family="Arial" fill="#0f172a">2026-05-14 09:01:12</text>
<rect x="260" y="224" width="180" height="54" fill="#ffffff" stroke="#cbd5e1"/>
<text x="270" y="256" font-size="14" font-family="Arial" fill="#0f172a">203.0.113.44</text>
<rect x="440" y="224" width="150" height="54" fill="#ffffff" stroke="#cbd5e1"/>
<text x="450" y="256" font-size="14" font-family="Arial" fill="#0f172a">j.smith</text>
<rect x="590" y="224" width="190" height="54" fill="#ffffff" stroke="#cbd5e1"/>
<text x="600" y="256" font-size="14" font-family="Arial" fill="#0f172a">Failed login</text>
<rect x="780" y="224" width="460" height="54" fill="#ffffff" stroke="#cbd5e1"/>
<text x="790" y="256" font-size="14" font-family="Arial" fill="#0f172a">Bad password</text>
<rect x="40" y="278" width="220" height="54" fill="#f1f5f9" stroke="#cbd5e1"/>
<text x="50" y="310" font-size="14" font-family="Arial" fill="#0f172a">2026-05-14 09:02:03</text>
<rect x="260" y="278" width="180" height="54" fill="#f1f5f9" stroke="#cbd5e1"/>
<text x="270" y="310" font-size="14" font-family="Arial" fill="#0f172a">203.0.113.44</text>
<rect x="440" y="278" width="150" height="54" fill="#f1f5f9" stroke="#cbd5e1"/>
<text x="450" y="310" font-size="14" font-family="Arial" fill="#0f172a">j.smith</text>
<rect x="590" y="278" width="190" height="54" fill="#f1f5f9" stroke="#cbd5e1"/>
<text x="600" y="310" font-size="14" font-family="Arial" fill="#0f172a">Failed login</text>
<rect x="780" y="278" width="460" height="54" fill="#f1f5f9" stroke="#cbd5e1"/>
<text x="790" y="310" font-size="14" font-family="Arial" fill="#0f172a">Bad password</text>
<rect x="40" y="332" width="220" height="54" fill="#ffffff" stroke="#cbd5e1"/>
<text x="50" y="364" font-size="14" font-family="Arial" fill="#0f172a">2026-05-14 09:03:21</text>
<rect x="260" y="332" width="180" height="54" fill="#ffffff" stroke="#cbd5e1"/>
<text x="270" y="364" font-size="14" font-family="Arial" fill="#0f172a">203.0.113.44</text>
<rect x="440" y="332" width="150" height="54" fill="#ffffff" stroke="#cbd5e1"/>
<text x="450" y="364" font-size="14" font-family="Arial" fill="#0f172a">j.smith</text>
<rect x="590" y="332" width="190" height="54" fill="#ffffff" stroke="#cbd5e1"/>
<text x="600" y="364" font-size="14" font-family="Arial" fill="#0f172a">Failed login</text>
<rect x="780" y="332" width="460" height="54" fill="#ffffff" stroke="#cbd5e1"/>
<text x="790" y="364" font-size="14" font-family="Arial" fill="#0f172a">Bad password</text>
<rect x="40" y="386" width="220" height="54" fill="#f1f5f9" stroke="#cbd5e1"/>
<text x="50" y="418" font-size="14" font-family="Arial" fill="#0f172a">2026-05-14 09:04:55</text>
<rect x="260" y="386" width="180" height="54" fill="#f1f5f9" stroke="#cbd5e1"/>
<text x="270" y="418" font-size="14" font-family="Arial" fill="#0f172a">203.0.113.44</text>
<rect x="440" y="386" width="150" height="54" fill="#f1f5f9" stroke="#cbd5e1"/>
<text x="450" y="418" font-size="14" font-family="Arial" fill="#0f172a">j.smith</text>
<rect x="590" y="386" width="190" height="54" fill="#f1f5f9" stroke="#cbd5e1"/>
<text x="600" y="418" font-size="14" font-family="Arial" fill="#0f172a">Failed login</text>
<rect x="780" y="386" width="460" height="54" fill="#f1f5f9" stroke="#cbd5e1"/>
<text x="790" y="418" font-size="14" font-family="Arial" fill="#0f172a">Bad password</text>
<rect x="40" y="440" width="220" height="54" fill="#ffffff" stroke="#cbd5e1"/>
<text x="50" y="472" font-size="14" font-family="Arial" fill="#0f172a">2026-05-14 09:05:43</text>
<rect x="260" y="440" width="180" height="54" fill="#ffffff" stroke="#cbd5e1"/>
<text x="270" y="472" font-size="14" font-family="Arial" fill="#0f172a">203.0.113.44</text>
<rect x="440" y="440" width="150" height="54" fill="#ffffff" stroke="#cbd5e1"/>
<text x="450" y="472" font-size="14" font-family="Arial" fill="#0f172a">j.smith</text>
<rect x="590" y="440" width="190" height="54" fill="#ffffff" stroke="#cbd5e1"/>
<text x="600" y="472" font-size="14" font-family="Arial" fill="#0f172a">Failed login</text>
<rect x="780" y="440" width="460" height="54" fill="#ffffff" stroke="#cbd5e1"/>
<text x="790" y="472" font-size="14" font-family="Arial" fill="#0f172a">Bad password</text>
<rect x="40" y="494" width="220" height="54" fill="#f1f5f9" stroke="#cbd5e1"/>
<text x="50" y="526" font-size="14" font-family="Arial" fill="#0f172a">2026-05-14 09:09:18</text>
<rect x="260" y="494" width="180" height="54" fill="#f1f5f9" stroke="#cbd5e1"/>
<text x="270" y="526" font-size="14" font-family="Arial" fill="#0f172a">203.0.113.44</text>
<rect x="440" y="494" width="150" height="54" fill="#f1f5f9" stroke="#cbd5e1"/>
<text x="450" y="526" font-size="14" font-family="Arial" fill="#0f172a">j.smith</text>
<rect x="590" y="494" width="190" height="54" fill="#f1f5f9" stroke="#cbd5e1"/>
<text x="600" y="526" font-size="14" font-family="Arial" fill="#0f172a">Successful login</text>
<rect x="780" y="494" width="460" height="54" fill="#f1f5f9" stroke="#cbd5e1"/>
<text x="790" y="526" font-size="14" font-family="Arial" fill="#0f172a">Interactive login</text>
<rect x="40" y="548" width="220" height="54" fill="#ffffff" stroke="#cbd5e1"/>
<text x="50" y="580" font-size="14" font-family="Arial" fill="#0f172a">2026-05-14 09:11:02</text>
<rect x="260" y="548" width="180" height="54" fill="#ffffff" stroke="#cbd5e1"/>
<text x="270" y="580" font-size="14" font-family="Arial" fill="#0f172a">203.0.113.44</text>
<rect x="440" y="548" width="150" height="54" fill="#ffffff" stroke="#cbd5e1"/>
<text x="450" y="580" font-size="14" font-family="Arial" fill="#0f172a">j.smith</text>
<rect x="590" y="548" width="190" height="54" fill="#ffffff" stroke="#cbd5e1"/>
<text x="600" y="580" font-size="14" font-family="Arial" fill="#0f172a">Special privileges assigned</text>
<rect x="780" y="548" width="460" height="54" fill="#ffffff" stroke="#cbd5e1"/>
<text x="790" y="580" font-size="14" font-family="Arial" fill="#0f172a">Admin-like token observed</text>
<text x="40" y="720" font-size="17" font-family="Arial" fill="#475569">Synthetic screenshot for GitHub README and public security portfolio documentation</text>
</svg>